<?xml version="1.0" encoding="UTF-8"?>
<svg version="1.1" xmlns="http://www.w3.org/2000/svg" width="40" height="40">
<path d="M0 0 C1.7890625 2.40234375 1.7890625 2.40234375 3 5 C4.0209375 6.2065625 4.0209375 6.2065625 5.0625 7.4375 C9.03079587 12.68589132 9.3469429 17.25816701 8.546875 23.6015625 C7.76767201 27.01892417 6.18761562 29.29765129 4 32 C3.443125 32.7425 2.88625 33.485 2.3125 34.25 C1.879375 34.8275 1.44625 35.405 1 36 C0.67 36.66 0.34 37.32 0 38 C-7.05457603 39.43970939 -14.99162491 39.78644855 -22 38 C-23.6875 35.75 -23.6875 35.75 -25 33 C-25.680625 32.195625 -26.36125 31.39125 -27.0625 30.5625 C-31.03079587 25.31410868 -31.3469429 20.74183299 -30.546875 14.3984375 C-29.76767201 10.98107583 -28.18761562 8.70234871 -26 6 C-25.1646875 4.88625 -25.1646875 4.88625 -24.3125 3.75 C-23.879375 3.1725 -23.44625 2.595 -23 2 C-22.67 1.34 -22.34 0.68 -22 0 C-14.97113443 -1.51602983 -6.98604843 -1.68659365 0 0 Z " fill="#141C29" transform="translate(31,1)"/>
<path d="M0 0 C0.99 0 1.98 0 3 0 C3.33 1.98 3.66 3.96 4 6 C4.99 5.34 5.98 4.68 7 4 C10.18522831 3.50996487 11.56011202 3.72655612 14.3125 5.4375 C16.78519805 9.19233777 16.33634519 12.62751253 16 17 C12.13892543 14.42595029 12.05680308 12.38979741 11 8 C9.68 8 8.36 8 7 8 C5.98888907 11.04913228 5.98888907 11.04913228 7 14 C9.02463255 14.65213292 9.02463255 14.65213292 11 15 C11 15.99 11 16.98 11 18 C8.125 17.6875 8.125 17.6875 5 17 C4.34 16.01 3.68 15.02 3 14 C2.29875 14.680625 1.5975 15.36125 0.875 16.0625 C-2 18 -2 18 -5.125 18 C-8 17 -8 17 -9.9375 15.3125 C-11.41325591 12.10056066 -11.06444212 10.33525198 -10 7 C-8.1875 5.125 -8.1875 5.125 -6 4 C-4.68 4 -3.36 4 -2 4 C-2 4.99 -2 5.98 -2 7 C-3.32 7.33 -4.64 7.66 -6 8 C-6 9.98 -6 11.96 -6 14 C-4.35 13.67 -2.7 13.34 -1 13 C-0.67 8.71 -0.34 4.42 0 0 Z " fill="#BF644D" transform="translate(17,13)"/>
<path d="M0 0 C0.99 0 1.98 0 3 0 C3.33 1.98 3.66 3.96 4 6 C4.99 5.34 5.98 4.68 7 4 C10.18522831 3.50996487 11.56011202 3.72655612 14.3125 5.4375 C16.78519805 9.19233777 16.33634519 12.62751253 16 17 C12.13892543 14.42595029 12.05680308 12.38979741 11 8 C7.70924004 8.37904208 7.70924004 8.37904208 5 10 C3.35 10 1.7 10 0 10 C0 6.7 0 3.4 0 0 Z " fill="#E2E3E5" transform="translate(17,13)"/>
<path d="M0 0 C0.66 0 1.32 0 2 0 C2.05389087 1.95803507 2.09274217 3.91648909 2.125 5.875 C2.14820313 6.96554688 2.17140625 8.05609375 2.1953125 9.1796875 C2 12 2 12 0 14 C-2.625 13.625 -2.625 13.625 -5 13 C-5 11.02 -5 9.04 -5 7 C-3.35 6.67 -1.7 6.34 0 6 C0 5.01 0 4.02 0 3 C-1.65 3 -3.3 3 -5 3 C-5 2.67 -5 2.34 -5 2 C-3.35 2 -1.7 2 0 2 C0 1.34 0 0.68 0 0 Z " fill="#1E1F2A" transform="translate(15,14)"/>
<path d="M0 0 C2.3125 0 2.3125 0 5 1 C6.73877647 4.09040349 8 7.43376915 8 11 C7.01 11 6.02 11 5 11 C4.67 10.34 4.34 9.68 4 9 C3.175 8.690625 2.35 8.38125 1.5 8.0625 C0.675 7.711875 -0.15 7.36125 -1 7 C-2 4 -2 4 -1.0625 1.8125 C-0.5365625 0.9153125 -0.5365625 0.9153125 0 0 Z " fill="#1C2431" transform="translate(24,20)"/>
<path d="M0 0 C3.10843835 -0.34538204 4.62515045 -0.23301458 7.3125 1.4375 C9.78519805 5.19233777 9.33634519 8.62751253 9 13 C5.12328873 10.41552582 5.19213805 8.37117286 4 4 C3.34 3.67 2.68 3.34 2 3 C2 2.34 2 1.68 2 1 C1.34 0.67 0.68 0.34 0 0 Z " fill="#D9DBDD" transform="translate(24,17)"/>
<path d="M0 0 C0 0.99 0 1.98 0 3 C-1.2065625 3.37125 -1.2065625 3.37125 -2.4375 3.75 C-5.171081 4.72238859 -5.171081 4.72238859 -5.8125 7.125 C-5.874375 7.74375 -5.93625 8.3625 -6 9 C-6.99 9 -7.98 9 -9 9 C-8.51392405 3.53164557 -8.51392405 3.53164557 -6.1875 1.125 C-4 0 -4 0 0 0 Z " fill="#DDDEE0" transform="translate(15,17)"/>
<path d="M0 0 C0.66 0 1.32 0 2 0 C2 3.96 2 7.92 2 12 C1.67 12 1.34 12 1 12 C1 10.35 1 8.7 1 7 C-0.65 7 -2.3 7 -4 7 C-2.68 6.67 -1.36 6.34 0 6 C0 5.01 0 4.02 0 3 C-1.65 3 -3.3 3 -5 3 C-5 2.67 -5 2.34 -5 2 C-3.35 2 -1.7 2 0 2 C0 1.34 0 0.68 0 0 Z " fill="#2B303D" transform="translate(15,14)"/>
<path d="M0 0 C1.32 0 2.64 0 4 0 C4.33 0.66 4.66 1.32 5 2 C7.02463255 2.65213292 7.02463255 2.65213292 9 3 C9 3.99 9 4.98 9 6 C6.1875 5.8125 6.1875 5.8125 3 5 C1.125 2.4375 1.125 2.4375 0 0 Z " fill="#5A62E2" transform="translate(19,25)"/>
<path d="M0 0 C0 0.99 0 1.98 0 3 C-0.99 3 -1.98 3 -3 3 C-3.103125 3.639375 -3.20625 4.27875 -3.3125 4.9375 C-3.539375 5.618125 -3.76625 6.29875 -4 7 C-4.99 7.33 -5.98 7.66 -7 8 C-6.42415568 5.61435923 -5.77772405 3.33317216 -5 1 C-3.35 0.67 -1.7 0.34 0 0 Z " fill="#A06999" transform="translate(22,22)"/>
<path d="M0 0 C0.33 0 0.66 0 1 0 C1.66 2.97 2.32 5.94 3 9 C2.01 9 1.02 9 0 9 C-0.33 8.34 -0.66 7.68 -1 7 C-3.01669827 5.86649466 -3.01669827 5.86649466 -5 5 C-3.35 5 -1.7 5 0 5 C0 3.35 0 1.7 0 0 Z " fill="#413D54" transform="translate(29,22)"/>
<path d="M0 0 C2 1 2 1 2 1 Z " fill="#000000" transform="translate(27,39)"/>
<path d="M0 0 C2 1 2 1 2 1 Z " fill="#000000" transform="translate(11,39)"/>
<path d="" fill="#000000" transform="translate(0,0)"/>
<path d="" fill="#000000" transform="translate(0,0)"/>
<path d="" fill="#00002A" transform="translate(0,0)"/>
<path d="" fill="#00001F" transform="translate(0,0)"/>
<path d="" fill="#00002A" transform="translate(0,0)"/>
<path d="" fill="#00002A" transform="translate(0,0)"/>
<path d="" fill="#000000" transform="translate(0,0)"/>
<path d="" fill="#000000" transform="translate(0,0)"/>
<path d="M0 0 C2 1 2 1 2 1 Z " fill="#000000" transform="translate(27,0)"/>
<path d="M0 0 C2 1 2 1 2 1 Z " fill="#000000" transform="translate(11,0)"/>
<path d="" fill="#000000" transform="translate(0,0)"/>
<path d="" fill="#000000" transform="translate(0,0)"/>
<path d="" fill="#000000" transform="translate(0,0)"/>
<path d="" fill="#000000" transform="translate(0,0)"/>
<path d="" fill="#000000" transform="translate(0,0)"/>
<path d="" fill="#000000" transform="translate(0,0)"/>
<path d="" fill="#000055" transform="translate(0,0)"/>
<path d="" fill="#000000" transform="translate(0,0)"/>
<path d="" fill="#000000" transform="translate(0,0)"/>
<path d="" fill="#000000" transform="translate(0,0)"/>
<path d="" fill="#000000" transform="translate(0,0)"/>
<path d="" fill="#000000" transform="translate(0,0)"/>
<path d="" fill="#000000" transform="translate(0,0)"/>
<path d="" fill="#000000" transform="translate(0,0)"/>
<path d="" fill="#000000" transform="translate(0,0)"/>
<path d="" fill="#000000" transform="translate(0,0)"/>
<path d="" fill="#000000" transform="translate(0,0)"/>
<path d="" fill="#000055" transform="translate(0,0)"/>
<path d="" fill="#000000" transform="translate(0,0)"/>
<path d="" fill="#000000" transform="translate(0,0)"/>
<path d="" fill="#000000" transform="translate(0,0)"/>
<path d="" fill="#000000" transform="translate(0,0)"/>
<path d="" fill="#000000" transform="translate(0,0)"/>
<path d="" fill="#000000" transform="translate(0,0)"/>
</svg>
